<?xml version="1.0" encoding="utf-8"?>
<!-- Generator: Adobe Illustrator 25.4.1, SVG Export Plug-In . SVG Version: 6.00 Build 0)  -->
<svg version="1.1" id="Layer_1" xmlns="http://www.w3.org/2000/svg" xmlns:xlink="http://www.w3.org/1999/xlink" x="0px" y="0px"
	 viewBox="0 0 566.93 141.73" style="enable-background:new 0 0 566.93 141.73;" xml:space="preserve">
<style type="text/css">
	.st0{fill:#0075BF;}
</style>
<g>
	<g>
		<path class="st0" d="M319.34,41.29h57.12l-2.89,16.36h-18.34l-8.1,45.9h-20.43l8.09-45.9h-18.34L319.34,41.29z"/>
		<path class="st0" d="M441.93,68.95c4.73-0.26,6.78,4.79,5.6,11.49c-1.52,8.62-5.13,12.36-9.98,12.36c-4.59,0-7.14-3.74-5.62-12.36
			C432.84,75.3,435.78,68.95,441.93,68.95z M413.8,81.4c-2.74,15.55,7.09,23.47,21.62,23.47c14.54,0,27.13-7.75,30.07-24.43
			c2.5-14.17-5.69-23.56-21.69-23.56C428.48,56.88,416.59,65.58,413.8,81.4z"/>
		<path class="st0" d="M464.78,103.56l10.98-62.28h17.96l-10.98,62.28H464.78z"/>
		<path class="st0" d="M507.2,89.53c-0.32,1.81,0.13,3.19,1.18,4.12c0.97,0.87,2.43,1.39,4.16,1.39c2.76,0,5.86-0.87,6.42-4.08
			c1.29-7.29-27.52-1.48-24.42-19.1c2.04-11.6,14.68-14.97,24.11-14.97c9.85,0,21.03,2.25,19.94,14.28h-16.32
			c0.09-1.47-0.34-2.51-1.13-3.33c-0.81-0.78-2.05-1.13-3.44-1.13c-3.12,0-5.28,0.95-5.68,3.24c-1.12,6.35,28.23,2.08,25.22,19.14
			c-1.66,9.4-10.55,15.77-27.14,15.77c-10.39,0-21.26-3.19-20.07-15.34H507.2z"/>
		<path class="st0" d="M387.67,68.95c4.73-0.26,6.79,4.79,5.6,11.49c-1.52,8.62-5.13,12.36-9.98,12.36c-4.6,0-7.14-3.74-5.62-12.36
			C378.58,75.3,381.52,68.95,387.67,68.95z M359.54,81.4c-2.74,15.55,7.09,23.47,21.62,23.47c14.54,0,27.13-7.75,30.07-24.43
			c2.5-14.17-5.69-23.56-21.69-23.56C374.23,56.88,362.33,65.58,359.54,81.4z"/>
	</g>
	<path class="st0" d="M275.07,34.72L62.93,34.69c-20.41,0-37.01,16.6-37.01,37.01c0,20.41,16.6,37.01,37.01,37.01l214.3,0
		c20.53-0.67,36.58-17.81,35.91-38.21C312.47,50.1,295.33,34.05,275.07,34.72z M277.1,100.48c0.14,0-214.17,0.01-214.17,0.01
		c-15.88,0-28.79-12.92-28.79-28.8c0-15.87,12.92-28.79,28.79-28.79l212.14,0.03c16-0.53,29.34,11.96,29.86,27.83
		C305.45,86.63,292.97,99.97,277.1,100.48z"/>
	<path class="st0" d="M91.82,56.63c-3.77-4.01-8.38-5.65-15.92-5.65H55.85h-0.37v7.66c0,0,5.16,0,5.82,0c0,0.72,0,25.54,0,26.25
		c-0.65,0-5.82,0-5.82,0v7.66h23.19c12.94,0,18.73-10.4,18.73-20.7C97.4,65.78,95.47,60.52,91.82,56.63z M72.03,58.65
		c0.59,0,3.07,0,3.07,0c7.19,0,11.15,4.71,11.15,13.28c0,8.37-3.84,12.98-10.81,12.98c0,0-2.8,0-3.41,0
		C72.03,84.18,72.03,59.36,72.03,58.65z"/>
	<path class="st0" d="M194.35,50.99h-21.8h-0.37v7.66c0,0,4.17,0,4.8,0c0,0.72,0,25.54,0,26.25c-0.09,0-0.26,0-0.47,0
		c0,0-2.74,0-4.33,0c-0.54,0-0.95,0-1.07,0c-0.17-0.48-8.8-25.31-9.13-26.25c0.88,0,5.86,0,5.86,0v-7.66h-0.37h-29.66v7.66
		c0,0,5.02,0,5.87,0c-0.3,0.93-8.39,25.75-8.55,26.25c-0.04,0-0.16,0-0.26,0c0,0-4.64,0-5.06,0c-0.19-0.39-5.62-11.27-5.9-11.82
		c4.3-2.23,6.43-5.59,6.43-10.29c0-5.87-3.64-11.8-11.78-11.8H94.93h-0.37v7.66c0,0,4.55,0,5.2,0c0,0.72,0,25.54,0,26.25
		c-0.64,0-5.2,0-5.2,0v7.66h20.59V84.9c0,0-4.12,0-4.75,0c0-0.67,0-9.59,0-10.26c0.59,0,3.37,0,3.75,0
		c0.2,0.41,8.55,17.92,8.55,17.92h6.72h5.46h15.25V84.9c0,0-4.99,0-5.86,0c0.29-0.83,2.03-5.8,2.18-6.23c0.49,0,10.58,0,11.09,0
		c0.14,0.46,1.65,5.43,1.89,6.23c-0.83,0-5.49,0-5.49,0v7.66h18.23h4.33h16.53V84.9c0,0-4.66,0-5.31,0c0-0.65,0-6.55,0-7.19
		c0.66,0,5.84,0,5.84,0c10.48,0,14.21-6.9,14.21-13.36C207.77,56.47,202.25,50.99,194.35,50.99z M187.72,58.65c0.61,0,3.47,0,3.47,0
		c3.12,0,5.22,2.31,5.22,5.76c0,3.84-2,5.64-6.29,5.64c0,0-1.84,0-2.39,0C187.72,69.37,187.72,59.32,187.72,58.65z M155.46,71.91
		c-0.81,0-5.95,0-6.79,0c0.27-0.83,3.07-9.39,3.57-10.91C152.7,62.53,155.22,71.09,155.46,71.91z M110.39,58.65
		c0.64,0,4.66,0,4.66,0c3.37,0,4.27,2.67,4.27,4.25c0,1.04-0.38,4.44-5.33,4.44c0,0-2.98,0-3.6,0
		C110.39,66.68,110.39,59.31,110.39,58.65z"/>
	<path class="st0" d="M207.78,50.99v7.66c0,0,3.89,0,4.52,0c0,0.72,0,25.54,0,26.25c-0.63,0-4.52,0-4.52,0v7.66h34.47V78.82h-8.03
		c0,0,0,5.42,0,6.07c-0.68,0-10.49,0-11.17,0c0-0.67,0-9.29,0-9.96c0.69,0,9.6,0,9.6,0v-7.66c0,0-8.91,0-9.6,0c0-0.66,0-7.97,0-8.63
		c0.68,0,10.49,0,11.17,0c0,0.65,0,6.01,0,6.01h8.03V50.99h-0.37H207.78z"/>
	<path class="st0" d="M273.39,73.08c4.34-2.23,6.5-5.59,6.5-10.3c0-5.87-3.68-11.8-11.9-11.8h-23.89h-0.37v7.66c0,0,4.61,0,5.25,0
		c0,0.72,0,25.54,0,26.25c-0.65,0-5.25,0-5.25,0v7.66h20.8V84.9c0,0-4.17,0-4.8,0c0-0.67,0-9.59,0-10.26c0.59,0,3.42,0,3.8,0
		c0.2,0.41,8.64,17.92,8.64,17.92h12.3V84.9c0,0-4.7,0-5.11,0C279.15,84.51,273.67,73.64,273.39,73.08z M259.72,58.65
		c0.64,0,4.71,0,4.71,0c3.41,0,4.31,2.67,4.31,4.25c0,1.04-0.39,4.44-5.39,4.44c0,0-3.02,0-3.64,0
		C259.72,66.68,259.72,59.31,259.72,58.65z"/>
</g>
</svg>
