<svg width="463" height="131" viewBox="0 0 463 131" fill="none" xmlns="http://www.w3.org/2000/svg">
<path fill-rule="evenodd" clip-rule="evenodd" d="M283.422 3.28427C284.062 1.08102 281.457 -0.711092 280.176 1.05151L237.075 60.3591C236.363 61.3388 236.649 62.8832 237.674 63.5881L245.802 69.1801L228.955 127.131C228.315 129.335 230.92 131.127 232.201 129.364L275.302 70.0566C276.014 69.077 275.728 67.5325 274.703 66.8277L266.575 61.2357L283.422 3.28427Z" fill="#E11D48"/>
<path d="M7.53 68.36C5.33 68.36 3.1 68.02 0.84 67.34C0.94 65.36 1.1 63.52 1.32 61.82L3.63 61.37L5.13 63.92C6.33 64.34 7.39 64.55 8.31 64.55C8.63 64.55 9.31 64.46 10.35 64.28C10.39 63.88 10.41 63.61 10.41 63.47C10.41 62.99 10.33 62.63 10.17 62.39C10.01 62.13 9.66 61.85 9.12 61.55C8.58 61.23 7.61 60.76 6.21 60.14C4.49 59.3 3.25 58.4 2.49 57.44C1.73 56.46 1.35 55.31 1.35 53.99C1.35 51.93 2.05 50.32 3.45 49.16C4.85 48 6.77 47.42 9.21 47.42C10.39 47.42 11.56 47.54 12.72 47.78C13.9 48 14.93 48.31 15.81 48.71C15.77 49.83 15.68 51.22 15.54 52.88L15.45 54.17L13.26 54.5L10.98 51.59C10.26 51.37 9.36 51.26 8.28 51.26C7.6 51.26 7.09 51.32 6.75 51.44C6.65 51.84 6.6 52.15 6.6 52.37C6.6 52.81 6.71 53.2 6.93 53.54C7.15 53.86 7.54 54.2 8.1 54.56C8.66 54.9 9.49 55.33 10.59 55.85C12.19 56.61 13.4 57.28 14.22 57.86C15.04 58.44 15.61 59.05 15.93 59.69C16.27 60.31 16.44 61.07 16.44 61.97C16.44 63.95 15.65 65.51 14.07 66.65C12.49 67.79 10.31 68.36 7.53 68.36ZM21.6457 65.06L24.2257 64.34V60.38L18.7357 51.59L17.3557 49.88L17.4757 47.78H26.2657L26.5657 50.63L24.6157 51.17L27.7657 56.51L30.3757 52.1C30.4557 51.96 30.4957 51.82 30.4957 51.68C30.4957 51.46 30.3757 51.3 30.1357 51.2L28.3957 50.42L28.6057 47.78H36.1657L36.3757 50.6L35.1757 51.32L29.6557 59.42V63.14C29.6557 63.62 29.6857 63.93 29.7457 64.07C29.8257 64.21 30.0057 64.35 30.2857 64.49L32.1457 65.6L32.0257 68H21.7957L21.6457 65.06ZM43.1813 55.22L43.6913 63.08C43.7113 63.54 43.7613 63.84 43.8413 63.98C43.9213 64.12 44.1013 64.27 44.3813 64.43L45.9413 65.48L45.8213 68H38.0212L37.8713 64.73L39.4913 64.34L39.6113 52.52C39.6113 52.14 39.5813 51.88 39.5213 51.74C39.4613 51.6 39.3213 51.44 39.1013 51.26L37.9913 50.42L38.2013 47.78H44.4113L53.4713 59.39L53.0513 52.7C53.0313 52.22 52.9813 51.91 52.9013 51.77C52.8213 51.63 52.6413 51.48 52.3613 51.32L50.8013 50.3L50.8913 47.78H58.6313L58.7513 50.84L57.2213 51.5L57.1013 67.73L53.6513 68.87L43.1813 55.22ZM60.2827 64.94L62.4727 64.34V52.85C62.4727 52.33 62.4327 51.99 62.3527 51.83C62.2727 51.65 62.0627 51.49 61.7227 51.35L60.2227 50.48L60.3127 47.78H76.6027C76.7427 49.88 76.8127 51.93 76.8127 53.93L74.5927 54.08L72.4627 51.44L67.9327 51.32V56.21L74.3227 55.67V60.29L67.9327 59.6V64.43L72.9127 64.34L75.2227 61.7L77.4427 61.85C77.3627 63.95 77.2127 66 76.9927 68H60.4327L60.2827 64.94ZM79.2741 64.94L81.4641 64.34V52.91C81.4641 52.39 81.4241 52.05 81.3441 51.89C81.2641 51.71 81.0541 51.55 80.7141 51.41L79.1541 50.54L79.3341 48.08C82.3341 47.64 85.2241 47.42 88.0041 47.42C90.1641 47.42 91.9041 47.64 93.2241 48.08C94.5441 48.5 95.5041 49.17 96.1041 50.09C96.7241 50.99 97.0341 52.19 97.0341 53.69C97.0341 54.93 96.7141 56.02 96.0741 56.96C95.4341 57.88 94.5241 58.59 93.3441 59.09L98.1441 66.83L98.1141 68H92.6541L88.2141 59.99L86.8941 59.96V63.32C86.8941 63.8 86.9241 64.11 86.9841 64.25C87.0641 64.37 87.2441 64.51 87.5241 64.67L88.8141 65.42L88.6941 68H79.4241L79.2741 64.94ZM88.8141 56.6C89.8741 56.6 90.6541 56.5 91.1541 56.3C91.3541 55.58 91.4541 54.72 91.4541 53.72C91.4541 52.72 91.2341 52.01 90.7941 51.59C90.3741 51.17 89.6641 50.96 88.6641 50.96C88.1041 50.96 87.5341 50.99 86.9541 51.05V56.42C87.4741 56.54 88.0941 56.6 88.8141 56.6ZM109.299 68.36C105.919 68.36 103.379 67.47 101.679 65.69C99.9789 63.91 99.1289 61.27 99.1289 57.77C99.1289 55.63 99.5389 53.79 100.359 52.25C101.179 50.69 102.369 49.5 103.929 48.68C105.489 47.86 107.339 47.45 109.479 47.45C112.079 47.45 114.609 47.97 117.069 49.01C116.869 50.93 116.589 52.85 116.229 54.77L113.949 54.92L112.059 52.16C111.059 51.8 109.819 51.62 108.339 51.62C107.639 51.62 106.799 51.69 105.819 51.83C105.459 52.43 105.179 53.23 104.979 54.23C104.779 55.23 104.679 56.31 104.679 57.47C104.679 59.77 105.139 61.49 106.059 62.63C106.979 63.75 108.409 64.32 110.349 64.34C110.829 64.34 111.439 64.3 112.179 64.22V62.03C112.179 61.63 112.149 61.37 112.089 61.25C112.029 61.13 111.859 60.99 111.579 60.83L110.439 60.26L110.559 58.22L111.249 58.1C111.469 58.06 112.249 57.94 113.589 57.74C114.929 57.52 116.049 57.39 116.949 57.35C117.149 57.73 117.299 58.16 117.399 58.64V66.5C116.239 67.08 114.949 67.54 113.529 67.88C112.109 68.2 110.699 68.36 109.299 68.36ZM123.013 65.06L125.593 64.34V60.38L120.103 51.59L118.723 49.88L118.843 47.78H127.633L127.933 50.63L125.983 51.17L129.133 56.51L131.743 52.1C131.823 51.96 131.863 51.82 131.863 51.68C131.863 51.46 131.743 51.3 131.503 51.2L129.763 50.42L129.973 47.78H137.533L137.743 50.6L136.543 51.32L131.023 59.42V63.14C131.023 63.62 131.053 63.93 131.113 64.07C131.193 64.21 131.373 64.35 131.653 64.49L133.513 65.6L133.393 68H123.163L123.013 65.06ZM144.342 64.94L146.532 64.34V52.91C146.532 52.39 146.492 52.05 146.412 51.89C146.332 51.71 146.122 51.55 145.782 51.41L144.222 50.54L144.402 48.11C145.922 47.87 147.362 47.7 148.722 47.6C150.082 47.48 151.542 47.42 153.102 47.42C155.262 47.42 156.992 47.65 158.292 48.11C159.612 48.57 160.572 49.29 161.172 50.27C161.792 51.25 162.102 52.55 162.102 54.17C162.102 56.27 161.342 57.92 159.822 59.12C158.322 60.32 156.262 60.92 153.642 60.92L151.992 60.86V63.14C151.992 63.62 152.022 63.93 152.082 64.07C152.162 64.21 152.342 64.35 152.622 64.49L154.452 65.57L154.332 68H144.492L144.342 64.94ZM153.912 57.59C154.992 57.59 155.782 57.48 156.282 57.26C156.502 56.28 156.612 55.25 156.612 54.17C156.612 52.99 156.382 52.15 155.922 51.65C155.482 51.15 154.762 50.9 153.762 50.9C153.422 50.9 152.832 50.94 151.992 51.02V57.41C152.532 57.53 153.172 57.59 153.912 57.59ZM173.862 68.42C170.542 68.42 168.062 67.58 166.422 65.9C164.802 64.22 163.992 61.67 163.992 58.25C163.992 56.03 164.402 54.11 165.222 52.49C166.042 50.85 167.212 49.59 168.732 48.71C170.252 47.83 172.062 47.39 174.162 47.39C180.842 47.39 184.182 50.8 184.182 57.62C184.182 59.86 183.772 61.79 182.952 63.41C182.132 65.03 180.942 66.27 179.382 67.13C177.842 67.99 176.002 68.42 173.862 68.42ZM174.492 64.28C175.632 64.28 176.722 63.99 177.762 63.41C177.982 62.79 178.152 62.02 178.272 61.1C178.392 60.16 178.452 59.24 178.452 58.34C178.452 56.12 178.032 54.44 177.192 53.3C176.372 52.16 175.162 51.59 173.562 51.59C172.422 51.59 171.322 51.8 170.262 52.22C170.042 52.6 169.872 53.23 169.752 54.11C169.632 54.97 169.572 55.96 169.572 57.08C169.572 59.4 169.992 61.18 170.832 62.42C171.672 63.66 172.892 64.28 174.492 64.28ZM185.901 51.29L184.881 49.88L185.001 47.78H193.611L193.791 50.63L191.631 51.2L195.351 62.81L198.321 53.57L197.001 49.7L197.121 47.78H205.101L205.281 50.63L203.301 51.2L206.991 62.81L210.441 52.19C210.501 52.03 210.531 51.89 210.531 51.77C210.531 51.51 210.401 51.34 210.141 51.26L208.101 50.42L208.281 47.78H216.141L216.291 50.33L215.061 52.01L208.761 68.12L203.511 68.63L200.361 59.45L197.121 68.12L191.571 68.63L185.901 51.29ZM217.695 64.94L219.885 64.34V52.85C219.885 52.33 219.845 51.99 219.765 51.83C219.685 51.65 219.475 51.49 219.135 51.35L217.635 50.48L217.725 47.78H234.015C234.155 49.88 234.225 51.93 234.225 53.93L232.005 54.08L229.875 51.44L225.345 51.32V56.21L231.735 55.67V60.29L225.345 59.6V64.43L230.325 64.34L232.635 61.7L234.855 61.85C234.775 63.95 234.625 66 234.405 68H217.845L217.695 64.94ZM236.686 64.94L238.876 64.34V52.91C238.876 52.39 238.836 52.05 238.756 51.89C238.676 51.71 238.466 51.55 238.126 51.41L236.566 50.54L236.746 48.08C239.746 47.64 242.636 47.42 245.416 47.42C247.576 47.42 249.316 47.64 250.636 48.08C251.956 48.5 252.916 49.17 253.516 50.09C254.136 50.99 254.446 52.19 254.446 53.69C254.446 54.93 254.126 56.02 253.486 56.96C252.846 57.88 251.936 58.59 250.756 59.09L255.556 66.83L255.526 68H250.066L245.626 59.99L244.306 59.96V63.32C244.306 63.8 244.336 64.11 244.396 64.25C244.476 64.37 244.656 64.51 244.936 64.67L246.226 65.42L246.106 68H236.836L236.686 64.94ZM246.226 56.6C247.286 56.6 248.066 56.5 248.566 56.3C248.766 55.58 248.866 54.72 248.866 53.72C248.866 52.72 248.646 52.01 248.206 51.59C247.786 51.17 247.076 50.96 246.076 50.96C245.516 50.96 244.946 50.99 244.366 51.05V56.42C244.886 56.54 245.506 56.6 246.226 56.6ZM269.503 68.36C267.303 68.36 265.073 68.02 262.813 67.34C262.913 65.36 263.073 63.52 263.293 61.82L265.603 61.37L267.103 63.92C268.303 64.34 269.363 64.55 270.283 64.55C270.603 64.55 271.283 64.46 272.323 64.28C272.363 63.88 272.383 63.61 272.383 63.47C272.383 62.99 272.303 62.63 272.143 62.39C271.983 62.13 271.633 61.85 271.093 61.55C270.553 61.23 269.583 60.76 268.183 60.14C266.463 59.3 265.223 58.4 264.463 57.44C263.703 56.46 263.323 55.31 263.323 53.99C263.323 51.93 264.023 50.32 265.423 49.16C266.823 48 268.743 47.42 271.183 47.42C272.363 47.42 273.533 47.54 274.693 47.78C275.873 48 276.903 48.31 277.783 48.71C277.743 49.83 277.653 51.22 277.513 52.88L277.423 54.17L275.233 54.5L272.953 51.59C272.233 51.37 271.333 51.26 270.253 51.26C269.573 51.26 269.063 51.32 268.723 51.44C268.623 51.84 268.573 52.15 268.573 52.37C268.573 52.81 268.683 53.2 268.903 53.54C269.123 53.86 269.513 54.2 270.073 54.56C270.633 54.9 271.463 55.33 272.563 55.85C274.163 56.61 275.373 57.28 276.193 57.86C277.013 58.44 277.583 59.05 277.903 59.69C278.243 60.31 278.413 61.07 278.413 61.97C278.413 63.95 277.623 65.51 276.043 66.65C274.463 67.79 272.283 68.36 269.503 68.36ZM283.618 65.06L286.198 64.34V60.38L280.708 51.59L279.328 49.88L279.448 47.78H288.238L288.538 50.63L286.588 51.17L289.738 56.51L292.348 52.1C292.428 51.96 292.468 51.82 292.468 51.68C292.468 51.46 292.348 51.3 292.108 51.2L290.368 50.42L290.578 47.78H298.138L298.348 50.6L297.148 51.32L291.628 59.42V63.14C291.628 63.62 291.658 63.93 291.718 64.07C291.798 64.21 291.978 64.35 292.258 64.49L294.118 65.6L293.998 68H283.768L283.618 65.06ZM305.626 68.36C303.426 68.36 301.196 68.02 298.936 67.34C299.036 65.36 299.196 63.52 299.416 61.82L301.726 61.37L303.226 63.92C304.426 64.34 305.486 64.55 306.406 64.55C306.726 64.55 307.406 64.46 308.446 64.28C308.486 63.88 308.506 63.61 308.506 63.47C308.506 62.99 308.426 62.63 308.266 62.39C308.106 62.13 307.756 61.85 307.216 61.55C306.676 61.23 305.706 60.76 304.306 60.14C302.586 59.3 301.346 58.4 300.586 57.44C299.826 56.46 299.446 55.31 299.446 53.99C299.446 51.93 300.146 50.32 301.546 49.16C302.946 48 304.866 47.42 307.306 47.42C308.486 47.42 309.656 47.54 310.816 47.78C311.996 48 313.026 48.31 313.906 48.71C313.866 49.83 313.776 51.22 313.636 52.88L313.546 54.17L311.356 54.5L309.076 51.59C308.356 51.37 307.456 51.26 306.376 51.26C305.696 51.26 305.186 51.32 304.846 51.44C304.746 51.84 304.696 52.15 304.696 52.37C304.696 52.81 304.806 53.2 305.026 53.54C305.246 53.86 305.636 54.2 306.196 54.56C306.756 54.9 307.586 55.33 308.686 55.85C310.286 56.61 311.496 57.28 312.316 57.86C313.136 58.44 313.706 59.05 314.026 59.69C314.366 60.31 314.536 61.07 314.536 61.97C314.536 63.95 313.746 65.51 312.166 66.65C310.586 67.79 308.406 68.36 305.626 68.36ZM320.219 65.06L322.829 64.34V51.35L320.309 51.56L318.089 54.23L315.899 54.05C315.899 52.39 315.979 50.3 316.139 47.78H334.919C335.079 50.3 335.159 52.39 335.159 54.05L332.999 54.23L330.749 51.56L328.289 51.35V63.14C328.289 63.62 328.319 63.93 328.379 64.07C328.439 64.21 328.609 64.35 328.889 64.49L330.749 65.6L330.629 68H320.369L320.219 65.06ZM336.845 64.94L339.035 64.34V52.85C339.035 52.33 338.995 51.99 338.915 51.83C338.835 51.65 338.625 51.49 338.285 51.35L336.785 50.48L336.875 47.78H353.165C353.305 49.88 353.375 51.93 353.375 53.93L351.155 54.08L349.025 51.44L344.495 51.32V56.21L350.885 55.67V60.29L344.495 59.6V64.43L349.475 64.34L351.785 61.7L354.005 61.85C353.925 63.95 353.775 66 353.555 68H336.995L336.845 64.94ZM361.567 54.74L360.907 63.62V63.74C360.907 64.12 361.047 64.37 361.327 64.49L363.187 65.27L362.887 68H355.417L355.117 65.33L356.497 64.49L358.207 52.91C358.227 52.77 358.237 52.6 358.237 52.4C358.237 52.16 358.177 51.98 358.057 51.86C357.957 51.74 357.757 51.59 357.457 51.41L356.077 50.63L356.257 47.78H364.867L369.157 61.76L373.417 47.78H381.457L381.577 50.93L379.657 51.41L381.277 63.17C381.337 63.57 381.417 63.88 381.517 64.1C381.637 64.32 381.897 64.68 382.297 65.18L382.927 65.99L382.747 68H373.807L373.537 65.24L375.997 64.61L374.977 54.56L371.137 68.12L366.007 68.57L361.567 54.74ZM390.821 68.36C388.621 68.36 386.391 68.02 384.131 67.34C384.231 65.36 384.391 63.52 384.611 61.82L386.921 61.37L388.421 63.92C389.621 64.34 390.681 64.55 391.601 64.55C391.921 64.55 392.601 64.46 393.641 64.28C393.681 63.88 393.701 63.61 393.701 63.47C393.701 62.99 393.621 62.63 393.461 62.39C393.301 62.13 392.951 61.85 392.411 61.55C391.871 61.23 390.901 60.76 389.501 60.14C387.781 59.3 386.541 58.4 385.781 57.44C385.021 56.46 384.641 55.31 384.641 53.99C384.641 51.93 385.341 50.32 386.741 49.16C388.141 48 390.061 47.42 392.501 47.42C393.681 47.42 394.851 47.54 396.011 47.78C397.191 48 398.221 48.31 399.101 48.71C399.061 49.83 398.971 51.22 398.831 52.88L398.741 54.17L396.551 54.5L394.271 51.59C393.551 51.37 392.651 51.26 391.571 51.26C390.891 51.26 390.381 51.32 390.041 51.44C389.941 51.84 389.891 52.15 389.891 52.37C389.891 52.81 390.001 53.2 390.221 53.54C390.441 53.86 390.831 54.2 391.391 54.56C391.951 54.9 392.781 55.33 393.881 55.85C395.481 56.61 396.691 57.28 397.511 57.86C398.331 58.44 398.901 59.05 399.221 59.69C399.561 60.31 399.731 61.07 399.731 61.97C399.731 63.95 398.941 65.51 397.361 66.65C395.781 67.79 393.601 68.36 390.821 68.36ZM407.421 64.85L409.311 64.34V52.85C409.311 52.33 409.271 51.99 409.191 51.83C409.131 51.65 408.941 51.49 408.621 51.35L407.361 50.63L407.451 47.78H416.811L416.961 50.84L414.741 51.44V64.4L418.521 64.31L421.071 61.4L423.381 61.52C423.341 63.2 423.201 65.36 422.961 68H407.571L407.421 64.85ZM425.248 65.06L427.858 64.34V51.35L425.338 51.56L423.118 54.23L420.928 54.05C420.928 52.39 421.008 50.3 421.168 47.78H439.948C440.108 50.3 440.188 52.39 440.188 54.05L438.028 54.23L435.778 51.56L433.318 51.35V63.14C433.318 63.62 433.348 63.93 433.408 64.07C433.468 64.21 433.638 64.35 433.918 64.49L435.778 65.6L435.658 68H425.398L425.248 65.06ZM448.148 68.09C445.988 68.09 443.998 68 442.178 67.82L442.028 64.94L444.218 64.34V52.91C444.218 52.39 444.178 52.05 444.098 51.89C444.018 51.71 443.808 51.55 443.468 51.41L441.908 50.54L442.088 48.05C444.168 47.89 445.918 47.77 447.338 47.69C448.758 47.59 449.898 47.54 450.758 47.54C453.518 47.54 455.728 47.86 457.388 48.5C459.068 49.14 460.288 50.15 461.048 51.53C461.828 52.91 462.218 54.74 462.218 57.02C462.218 59.9 461.558 62.23 460.238 64.01C459.058 65.55 457.488 66.62 455.528 67.22C453.588 67.8 451.128 68.09 448.148 68.09ZM451.928 63.8C453.608 63.8 454.938 63.6 455.918 63.2C456.098 62.7 456.258 61.92 456.398 60.86C456.558 59.8 456.638 58.81 456.638 57.89C456.638 55.63 456.168 53.96 455.228 52.88C454.308 51.8 452.898 51.26 450.998 51.26C450.738 51.26 450.498 51.27 450.278 51.29C450.058 51.31 449.848 51.33 449.648 51.35V63.65C450.448 63.75 451.208 63.8 451.928 63.8Z" fill="#16A34A"/>
<path d="M285.56 88.16L285.12 94.08V94.16C285.12 94.4133 285.213 94.58 285.4 94.66L286.64 95.18L286.44 97H281.46L281.26 95.22L282.18 94.66L283.32 86.94C283.333 86.8467 283.34 86.7333 283.34 86.6C283.34 86.44 283.3 86.32 283.22 86.24C283.153 86.16 283.02 86.06 282.82 85.94L281.9 85.42L282.02 83.52H287.76L290.62 92.84L293.46 83.52H298.82L298.9 85.62L297.62 85.94L298.7 93.78C298.74 94.0467 298.793 94.2533 298.86 94.4C298.94 94.5467 299.113 94.7867 299.38 95.12L299.8 95.66L299.68 97H293.72L293.54 95.16L295.18 94.74L294.5 88.04L291.94 97.08L288.52 97.38L285.56 88.16ZM303.834 97.26C302.927 97.26 302.2 97.0133 301.654 96.52C301.107 96.0133 300.834 95.3667 300.834 94.58C300.834 93.5267 301.36 92.7 302.414 92.1C303.48 91.5 305.027 91.16 307.054 91.08C307.054 90.4533 307 89.9933 306.894 89.7C306.8 89.3933 306.62 89.1867 306.354 89.08C306.1 88.96 305.707 88.9 305.174 88.9C304.627 88.9 304.24 88.92 304.014 88.96L303.194 90.58L301.714 90.48C301.487 89.4133 301.327 88.3067 301.234 87.16C301.98 86.9067 302.794 86.7067 303.674 86.56C304.567 86.4133 305.4 86.34 306.174 86.34C307.587 86.34 308.6 86.62 309.214 87.18C309.827 87.7267 310.134 88.64 310.134 89.92V94.1C310.134 94.34 310.154 94.5067 310.194 94.6C310.247 94.6933 310.354 94.7867 310.514 94.88L311.314 95.34L311.234 96.58C309.687 96.94 308.467 97.14 307.574 97.18C307.547 97.1 307.507 96.96 307.454 96.76C307.4 96.5467 307.354 96.3467 307.314 96.16C306.794 96.4933 306.22 96.76 305.594 96.96C304.98 97.16 304.394 97.26 303.834 97.26ZM305.174 95C305.707 95 306.354 94.82 307.114 94.46L307.034 92.94C306.714 92.9133 306.5 92.9 306.394 92.9C306.034 92.9 305.614 92.94 305.134 93.02C304.654 93.0867 304.274 93.1667 303.994 93.26C303.954 93.4333 303.934 93.5933 303.934 93.74C303.934 94.14 304.04 94.4533 304.254 94.68C304.48 94.8933 304.787 95 305.174 95ZM312.028 95.08L313.268 94.72V89.88C313.268 89.5867 313.248 89.4 313.208 89.32C313.168 89.2267 313.061 89.1267 312.888 89.02L312.008 88.54L312.068 87.04L312.508 86.96C314.254 86.6133 315.514 86.4267 316.288 86.4C316.394 86.68 316.481 86.9867 316.548 87.32C317.361 86.9467 318.021 86.6933 318.528 86.56C319.048 86.4133 319.534 86.34 319.988 86.34C322.108 86.34 323.168 87.6067 323.168 90.14V94.06C323.168 94.34 323.188 94.5267 323.228 94.62C323.268 94.7133 323.381 94.8133 323.568 94.92L324.528 95.48L324.448 96.98H318.928L318.828 95.08L319.808 94.8V91.02C319.808 90.42 319.788 90 319.748 89.76C319.708 89.52 319.594 89.3333 319.408 89.2C319.234 89.0667 318.921 89 318.468 89C317.988 89 317.381 89.0733 316.648 89.22V94.06C316.648 94.34 316.668 94.5267 316.708 94.62C316.748 94.7133 316.854 94.8133 317.028 94.92L318.008 95.48L317.928 96.98H312.128L312.028 95.08ZM328.111 97.26C327.204 97.26 326.478 97.0133 325.931 96.52C325.384 96.0133 325.111 95.3667 325.111 94.58C325.111 93.5267 325.638 92.7 326.691 92.1C327.758 91.5 329.304 91.16 331.331 91.08C331.331 90.4533 331.278 89.9933 331.171 89.7C331.078 89.3933 330.898 89.1867 330.631 89.08C330.378 88.96 329.984 88.9 329.451 88.9C328.904 88.9 328.518 88.92 328.291 88.96L327.471 90.58L325.991 90.48C325.764 89.4133 325.604 88.3067 325.511 87.16C326.258 86.9067 327.071 86.7067 327.951 86.56C328.844 86.4133 329.678 86.34 330.451 86.34C331.864 86.34 332.878 86.62 333.491 87.18C334.104 87.7267 334.411 88.64 334.411 89.92V94.1C334.411 94.34 334.431 94.5067 334.471 94.6C334.524 94.6933 334.631 94.7867 334.791 94.88L335.591 95.34L335.511 96.58C333.964 96.94 332.744 97.14 331.851 97.18C331.824 97.1 331.784 96.96 331.731 96.76C331.678 96.5467 331.631 96.3467 331.591 96.16C331.071 96.4933 330.498 96.76 329.871 96.96C329.258 97.16 328.671 97.26 328.111 97.26ZM329.451 95C329.984 95 330.631 94.82 331.391 94.46L331.311 92.94C330.991 92.9133 330.778 92.9 330.671 92.9C330.311 92.9 329.891 92.94 329.411 93.02C328.931 93.0867 328.551 93.1667 328.271 93.26C328.231 93.4333 328.211 93.5933 328.211 93.74C328.211 94.14 328.318 94.4533 328.531 94.68C328.758 94.8933 329.064 95 329.451 95ZM340.425 101.56C338.892 101.56 337.732 101.32 336.945 100.84C336.172 100.36 335.785 99.6533 335.785 98.72C335.785 97.7333 336.238 96.8667 337.145 96.12C336.865 95.84 336.725 95.5333 336.725 95.2C336.725 94.72 337.038 94.04 337.665 93.16C336.572 92.5867 336.025 91.6 336.025 90.2C336.025 88.9733 336.438 88.0267 337.265 87.36C338.105 86.68 339.312 86.34 340.885 86.34C341.992 86.34 342.898 86.5067 343.605 86.84L346.005 86.1H346.945V89H345.385C345.452 89.3333 345.485 89.66 345.485 89.98C345.485 91.2067 345.072 92.14 344.245 92.78C343.418 93.42 342.205 93.74 340.605 93.74C340.058 93.74 339.565 93.7 339.125 93.62V93.9C339.125 94.1133 339.212 94.2667 339.385 94.36C339.572 94.44 339.965 94.52 340.565 94.6L342.365 94.86C343.778 95.06 344.752 95.4067 345.285 95.9C345.832 96.3933 346.105 97.0267 346.105 97.8C346.105 99 345.612 99.9267 344.625 100.58C343.638 101.233 342.238 101.56 340.425 101.56ZM340.905 91.78C341.185 91.78 341.505 91.74 341.865 91.66C341.918 91.5 341.965 91.26 342.005 90.94C342.058 90.62 342.085 90.3267 342.085 90.06C342.085 89.46 341.952 89.0133 341.685 88.72C341.432 88.4267 341.032 88.28 340.485 88.28C340.218 88.28 339.925 88.32 339.605 88.4C339.538 88.56 339.478 88.7933 339.425 89.1C339.385 89.4067 339.365 89.7 339.365 89.98C339.365 90.5933 339.492 91.0467 339.745 91.34C339.998 91.6333 340.385 91.78 340.905 91.78ZM341.345 99.3C341.958 99.3 342.425 99.2467 342.745 99.14C342.825 98.98 342.865 98.7667 342.865 98.5C342.865 98.18 342.752 97.9333 342.525 97.76C342.298 97.6 341.892 97.48 341.305 97.4L340.665 97.3C340.078 97.2333 339.485 97.14 338.885 97.02C338.805 97.38 338.765 97.6667 338.765 97.88C338.765 98.36 338.978 98.7133 339.405 98.94C339.832 99.18 340.478 99.3 341.345 99.3ZM348.57 82.2L351.97 81.3L352.79 84.34L349.41 85.26L348.57 82.2ZM347.73 95.16L349.13 94.74V89.88C349.13 89.5867 349.104 89.4 349.05 89.32C349.01 89.2267 348.897 89.1267 348.71 89.02L347.83 88.54L347.93 87.04C349.037 86.8267 349.89 86.6733 350.49 86.58C351.104 86.4733 351.664 86.4133 352.17 86.4C352.344 86.9733 352.45 87.4 352.49 87.68V94.08C352.49 94.36 352.51 94.5467 352.55 94.64C352.59 94.7333 352.704 94.8333 352.89 94.94L353.87 95.5L353.79 97H347.79L347.73 95.16ZM354.684 95.08L355.924 94.72V89.88C355.924 89.5867 355.904 89.4 355.864 89.32C355.824 89.2267 355.717 89.1267 355.544 89.02L354.664 88.54L354.724 87.04L355.164 86.96C356.911 86.6133 358.171 86.4267 358.944 86.4C359.051 86.68 359.137 86.9867 359.204 87.32C360.017 86.9467 360.677 86.6933 361.184 86.56C361.704 86.4133 362.191 86.34 362.644 86.34C364.764 86.34 365.824 87.6067 365.824 90.14V94.06C365.824 94.34 365.844 94.5267 365.884 94.62C365.924 94.7133 366.037 94.8133 366.224 94.92L367.184 95.48L367.104 96.98H361.584L361.484 95.08L362.464 94.8V91.02C362.464 90.42 362.444 90 362.404 89.76C362.364 89.52 362.251 89.3333 362.064 89.2C361.891 89.0667 361.577 89 361.124 89C360.644 89 360.037 89.0733 359.304 89.22V94.06C359.304 94.34 359.324 94.5267 359.364 94.62C359.404 94.7133 359.511 94.8133 359.684 94.92L360.664 95.48L360.584 96.98H354.784L354.684 95.08ZM372.007 101.56C370.474 101.56 369.314 101.32 368.527 100.84C367.754 100.36 367.367 99.6533 367.367 98.72C367.367 97.7333 367.821 96.8667 368.727 96.12C368.447 95.84 368.307 95.5333 368.307 95.2C368.307 94.72 368.621 94.04 369.247 93.16C368.154 92.5867 367.607 91.6 367.607 90.2C367.607 88.9733 368.021 88.0267 368.847 87.36C369.687 86.68 370.894 86.34 372.467 86.34C373.574 86.34 374.481 86.5067 375.187 86.84L377.587 86.1H378.527V89H376.967C377.034 89.3333 377.067 89.66 377.067 89.98C377.067 91.2067 376.654 92.14 375.827 92.78C375.001 93.42 373.787 93.74 372.187 93.74C371.641 93.74 371.147 93.7 370.707 93.62V93.9C370.707 94.1133 370.794 94.2667 370.967 94.36C371.154 94.44 371.547 94.52 372.147 94.6L373.947 94.86C375.361 95.06 376.334 95.4067 376.867 95.9C377.414 96.3933 377.687 97.0267 377.687 97.8C377.687 99 377.194 99.9267 376.207 100.58C375.221 101.233 373.821 101.56 372.007 101.56ZM372.487 91.78C372.767 91.78 373.087 91.74 373.447 91.66C373.501 91.5 373.547 91.26 373.587 90.94C373.641 90.62 373.667 90.3267 373.667 90.06C373.667 89.46 373.534 89.0133 373.267 88.72C373.014 88.4267 372.614 88.28 372.067 88.28C371.801 88.28 371.507 88.32 371.187 88.4C371.121 88.56 371.061 88.7933 371.007 89.1C370.967 89.4067 370.947 89.7 370.947 89.98C370.947 90.5933 371.074 91.0467 371.327 91.34C371.581 91.6333 371.967 91.78 372.487 91.78ZM372.927 99.3C373.541 99.3 374.007 99.2467 374.327 99.14C374.407 98.98 374.447 98.7667 374.447 98.5C374.447 98.18 374.334 97.9333 374.107 97.76C373.881 97.6 373.474 97.48 372.887 97.4L372.247 97.3C371.661 97.2333 371.067 97.14 370.467 97.02C370.387 97.38 370.347 97.6667 370.347 97.88C370.347 98.36 370.561 98.7133 370.987 98.94C371.414 99.18 372.061 99.3 372.927 99.3ZM383.474 94.96L384.934 94.56V86.9C384.934 86.5533 384.907 86.3267 384.854 86.22C384.8 86.1 384.66 85.9933 384.434 85.9L383.434 85.32L383.494 83.52H394.354C394.447 84.92 394.494 86.2867 394.494 87.62L393.014 87.72L391.594 85.96L388.574 85.88V89.14L392.834 88.78V91.86L388.574 91.4V94.62L391.894 94.56L393.434 92.8L394.914 92.9C394.86 94.3 394.76 95.6667 394.614 97H383.574L383.474 94.96ZM395.915 95.08L397.155 94.72V89.88C397.155 89.5867 397.135 89.4 397.095 89.32C397.055 89.2267 396.948 89.1267 396.775 89.02L395.895 88.54L395.955 87.04L396.395 86.96C398.141 86.6133 399.401 86.4267 400.175 86.4C400.281 86.68 400.368 86.9867 400.435 87.32C401.248 86.9467 401.908 86.6933 402.415 86.56C402.935 86.4133 403.421 86.34 403.875 86.34C405.995 86.34 407.055 87.6067 407.055 90.14V94.06C407.055 94.34 407.075 94.5267 407.115 94.62C407.155 94.7133 407.268 94.8133 407.455 94.92L408.415 95.48L408.335 96.98H402.815L402.715 95.08L403.695 94.8V91.02C403.695 90.42 403.675 90 403.635 89.76C403.595 89.52 403.481 89.3333 403.295 89.2C403.121 89.0667 402.808 89 402.355 89C401.875 89 401.268 89.0733 400.535 89.22V94.06C400.535 94.34 400.555 94.5267 400.595 94.62C400.635 94.7133 400.741 94.8133 400.915 94.92L401.895 95.48L401.815 96.98H396.015L395.915 95.08ZM413.778 97.24C412.218 97.24 411.011 96.7667 410.158 95.82C409.318 94.8733 408.898 93.5667 408.898 91.9C408.898 90.74 409.104 89.7467 409.518 88.92C409.931 88.08 410.518 87.44 411.278 87C412.038 86.56 412.924 86.34 413.938 86.34C415.444 86.34 416.598 86.82 417.398 87.78C418.211 88.74 418.598 90.1067 418.558 91.88L412.478 93C412.664 93.56 412.924 93.9733 413.258 94.24C413.604 94.4933 414.058 94.62 414.618 94.62C415.004 94.62 415.464 94.5667 415.998 94.46C416.531 94.34 417.071 94.18 417.618 93.98L418.078 95.96C417.584 96.3333 416.944 96.64 416.158 96.88C415.371 97.12 414.578 97.24 413.778 97.24ZM415.278 90.2C415.251 89.6933 415.104 89.3267 414.838 89.1C414.584 88.86 414.224 88.74 413.758 88.74C413.371 88.74 413.004 88.7933 412.658 88.9C412.378 89.5533 412.251 90.26 412.278 91.02L415.278 90.2ZM419.47 95.1L420.69 94.74V89.88C420.69 89.5867 420.67 89.4 420.63 89.32C420.59 89.2267 420.483 89.1267 420.31 89.02L419.43 88.54L419.49 87.04C419.716 86.9867 419.91 86.9533 420.07 86.94C421.683 86.6067 422.876 86.4267 423.65 86.4C423.77 86.7467 423.883 87.18 423.99 87.7C424.79 87.0733 425.47 86.64 426.03 86.4H427.17C427.156 86.9067 427.123 87.46 427.07 88.06C427.016 88.6467 426.95 89.12 426.87 89.48C426.39 89.4533 426.036 89.44 425.81 89.44C425.25 89.44 424.67 89.4733 424.07 89.54V94.08C424.07 94.36 424.09 94.5467 424.13 94.64C424.17 94.7333 424.276 94.8333 424.45 94.94L425.65 95.58L425.57 97H419.57L419.47 95.1ZM432.183 101.56C430.65 101.56 429.49 101.32 428.703 100.84C427.93 100.36 427.543 99.6533 427.543 98.72C427.543 97.7333 427.996 96.8667 428.903 96.12C428.623 95.84 428.483 95.5333 428.483 95.2C428.483 94.72 428.796 94.04 429.423 93.16C428.33 92.5867 427.783 91.6 427.783 90.2C427.783 88.9733 428.196 88.0267 429.023 87.36C429.863 86.68 431.07 86.34 432.643 86.34C433.75 86.34 434.656 86.5067 435.363 86.84L437.763 86.1H438.703V89H437.143C437.21 89.3333 437.243 89.66 437.243 89.98C437.243 91.2067 436.83 92.14 436.003 92.78C435.176 93.42 433.963 93.74 432.363 93.74C431.816 93.74 431.323 93.7 430.883 93.62V93.9C430.883 94.1133 430.97 94.2667 431.143 94.36C431.33 94.44 431.723 94.52 432.323 94.6L434.123 94.86C435.536 95.06 436.51 95.4067 437.043 95.9C437.59 96.3933 437.863 97.0267 437.863 97.8C437.863 99 437.37 99.9267 436.383 100.58C435.396 101.233 433.996 101.56 432.183 101.56ZM432.663 91.78C432.943 91.78 433.263 91.74 433.623 91.66C433.676 91.5 433.723 91.26 433.763 90.94C433.816 90.62 433.843 90.3267 433.843 90.06C433.843 89.46 433.71 89.0133 433.443 88.72C433.19 88.4267 432.79 88.28 432.243 88.28C431.976 88.28 431.683 88.32 431.363 88.4C431.296 88.56 431.236 88.7933 431.183 89.1C431.143 89.4067 431.123 89.7 431.123 89.98C431.123 90.5933 431.25 91.0467 431.503 91.34C431.756 91.6333 432.143 91.78 432.663 91.78ZM433.103 99.3C433.716 99.3 434.183 99.2467 434.503 99.14C434.583 98.98 434.623 98.7667 434.623 98.5C434.623 98.18 434.51 97.9333 434.283 97.76C434.056 97.6 433.65 97.48 433.063 97.4L432.423 97.3C431.836 97.2333 431.243 97.14 430.643 97.02C430.563 97.38 430.523 97.6667 430.523 97.88C430.523 98.36 430.736 98.7133 431.163 98.94C431.59 99.18 432.236 99.3 433.103 99.3ZM443.564 101.58C442.604 100.94 441.751 100.113 441.004 99.1L443.224 96.92L440.324 89.28C440.178 88.92 440.078 88.6867 440.024 88.58C439.971 88.4733 439.871 88.3267 439.724 88.14L439.384 87.7L439.484 86.54H444.604L444.804 88.24L443.644 88.52L445.284 93.54L447.124 88.94C447.151 88.86 447.164 88.8 447.164 88.76C447.164 88.64 447.111 88.56 447.004 88.52L446.064 88.12L446.244 86.54H450.044L450.224 88.16L447.664 93.74C446.744 95.7533 445.984 97.3333 445.384 98.48C444.784 99.6267 444.178 100.66 443.564 101.58Z" fill="#6B21A8"/>
</svg>
